<svg xmlns="http://www.w3.org/2000/svg" width="20" height="21" viewBox="0 0 20 21" fill="none">
  <path d="M17.6492 11.2863L12.0242 16.9113C11.9069 17.0286 11.7479 17.0944 11.582 17.0944C11.4162 17.0944 11.2571 17.0286 11.1398 16.9113C11.0226 16.794 10.9567 16.635 10.9567 16.4691C10.9567 16.3032 11.0226 16.1442 11.1398 16.0269L15.6984 11.4691H3.45703C3.29127 11.4691 3.1323 11.4032 3.01509 11.286C2.89788 11.1688 2.83203 11.0099 2.83203 10.8441C2.83203 10.6783 2.89788 10.5194 3.01509 10.4022C3.1323 10.2849 3.29127 10.2191 3.45703 10.2191H15.6984L11.1398 5.66128C11.0226 5.54401 10.9567 5.38495 10.9567 5.2191C10.9567 5.05325 11.0226 4.89419 11.1398 4.77691C11.2571 4.65963 11.4162 4.59375 11.582 4.59375C11.7479 4.59375 11.9069 4.65963 12.0242 4.77691L17.6492 10.4019C17.7073 10.46 17.7534 10.5289 17.7849 10.6048C17.8163 10.6806 17.8325 10.762 17.8325 10.8441C17.8325 10.9262 17.8163 11.0076 17.7849 11.0834C17.7534 11.1593 17.7073 11.2282 17.6492 11.2863Z" fill="white"/>
</svg>
