<svg xmlns="http://www.w3.org/2000/svg" width="22" height="22" viewBox="0 0 22 22" fill="none">
  <path d="M11 2.0625C9.23233 2.0625 7.50436 2.58668 6.0346 3.56874C4.56483 4.55081 3.41929 5.94665 2.74283 7.57977C2.06637 9.21288 1.88938 11.0099 2.23424 12.7436C2.57909 14.4773 3.43031 16.0698 4.68024 17.3198C5.93017 18.5697 7.52268 19.4209 9.25638 19.7658C10.9901 20.1106 12.7871 19.9336 14.4202 19.2572C16.0534 18.5807 17.4492 17.4352 18.4313 15.9654C19.4133 14.4956 19.9375 12.7677 19.9375 11C19.935 8.6304 18.9926 6.35856 17.317 4.683C15.6414 3.00743 13.3696 2.065 11 2.0625ZM11 18.5625C9.50428 18.5625 8.04215 18.119 6.7985 17.288C5.55486 16.457 4.58555 15.2759 4.01316 13.894C3.44078 12.5122 3.29101 10.9916 3.58282 9.52463C3.87462 8.05765 4.59487 6.71014 5.65251 5.65251C6.71014 4.59487 8.05765 3.87461 9.52463 3.58281C10.9916 3.29101 12.5122 3.44077 13.894 4.01316C15.2759 4.58555 16.457 5.55485 17.288 6.7985C18.119 8.04215 18.5625 9.50428 18.5625 11C18.5602 13.005 17.7627 14.9272 16.345 16.345C14.9272 17.7627 13.005 18.5602 11 18.5625ZM12.8614 8.04891L9.90946 11L12.8614 13.9511C12.9253 14.015 12.976 14.0908 13.0105 14.1743C13.0451 14.2577 13.0629 14.3472 13.0629 14.4375C13.0629 14.5278 13.0451 14.6173 13.0105 14.7007C12.976 14.7842 12.9253 14.86 12.8614 14.9239C12.7975 14.9878 12.7217 15.0385 12.6382 15.073C12.5548 15.1076 12.4653 15.1254 12.375 15.1254C12.2847 15.1254 12.1952 15.1076 12.1118 15.073C12.0283 15.0385 11.9525 14.9878 11.8886 14.9239L8.4511 11.4864C8.38718 11.4226 8.33647 11.3467 8.30187 11.2633C8.26727 11.1798 8.24946 11.0903 8.24946 11C8.24946 10.9097 8.26727 10.8202 8.30187 10.7367C8.33647 10.6533 8.38718 10.5774 8.4511 10.5136L11.8886 7.07609C11.9525 7.01222 12.0283 6.96155 12.1118 6.92698C12.1952 6.89241 12.2847 6.87462 12.375 6.87462C12.4653 6.87462 12.5548 6.89241 12.6382 6.92698C12.7217 6.96155 12.7975 7.01222 12.8614 7.07609C12.9253 7.13997 12.976 7.2158 13.0105 7.29926C13.0451 7.38272 13.0629 7.47217 13.0629 7.5625C13.0629 7.65283 13.0451 7.74228 13.0105 7.82574C12.976 7.9092 12.9253 7.98503 12.8614 8.04891Z" fill="#101828"/>
</svg>
