<svg xmlns="http://www.w3.org/2000/svg" width="16" height="17" viewBox="0 0 16 17" fill="none">
  <path d="M8.92308 12.8437C8.92308 13.0263 8.86894 13.2048 8.76751 13.3566C8.66608 13.5084 8.52192 13.6267 8.35325 13.6966C8.18458 13.7664 7.99898 13.7847 7.81992 13.7491C7.64086 13.7135 7.47638 13.6256 7.34729 13.4965C7.21819 13.3674 7.13028 13.2029 7.09466 13.0238C7.05904 12.8448 7.07732 12.6592 7.14719 12.4905C7.21706 12.3218 7.33537 12.1777 7.48717 12.0762C7.63897 11.9748 7.81744 11.9207 8 11.9207C8.24482 11.9207 8.47961 12.0179 8.65272 12.191C8.82583 12.3641 8.92308 12.5989 8.92308 12.8437ZM8 4.53606C6.30308 4.53606 4.92308 5.77836 4.92308 7.30529V7.61298C4.92308 7.77619 4.98791 7.93272 5.10332 8.04812C5.21873 8.16353 5.37525 8.22836 5.53846 8.22836C5.70167 8.22836 5.8582 8.16353 5.97361 8.04812C6.08901 7.93272 6.15385 7.77619 6.15385 7.61298V7.30529C6.15385 6.45913 6.98231 5.76683 8 5.76683C9.0177 5.76683 9.84616 6.45913 9.84616 7.30529C9.84616 8.15144 9.0177 8.84375 8 8.84375C7.83679 8.84375 7.68027 8.90858 7.56486 9.02399C7.44945 9.1394 7.38462 9.29592 7.38462 9.45913V10.0745C7.38462 10.2377 7.44945 10.3943 7.56486 10.5097C7.68027 10.6251 7.83679 10.6899 8 10.6899C8.16321 10.6899 8.31974 10.6251 8.43515 10.5097C8.55055 10.3943 8.61539 10.2377 8.61539 10.0745V10.0191C10.0185 9.76144 11.0769 8.64221 11.0769 7.30529C11.0769 5.77836 9.69693 4.53606 8 4.53606ZM16 8.84375C16 10.426 15.5308 11.9727 14.6518 13.2883C13.7727 14.6039 12.5233 15.6293 11.0615 16.2348C9.59966 16.8403 7.99113 16.9987 6.43928 16.69C4.88743 16.3813 3.46197 15.6194 2.34315 14.5006C1.22433 13.3818 0.462403 11.9563 0.153721 10.4045C-0.15496 8.85262 0.00346625 7.24409 0.608967 5.78228C1.21447 4.32047 2.23985 3.07104 3.55544 2.19199C4.87103 1.31294 6.41775 0.84375 8 0.84375C10.121 0.84599 12.1546 1.68956 13.6544 3.18937C15.1542 4.68917 15.9978 6.7227 16 8.84375ZM14.7692 8.84375C14.7692 7.50492 14.3722 6.19616 13.6284 5.08297C12.8846 3.96977 11.8274 3.10214 10.5905 2.5898C9.35356 2.07745 7.99249 1.9434 6.67939 2.20459C5.36629 2.46578 4.16013 3.11049 3.21343 4.05718C2.26674 5.00387 1.62203 6.21004 1.36084 7.52314C1.09965 8.83624 1.2337 10.1973 1.74605 11.4342C2.2584 12.6711 3.12603 13.7283 4.23922 14.4722C5.35241 15.216 6.66118 15.613 8 15.613C9.79469 15.6109 11.5153 14.8971 12.7843 13.6281C14.0534 12.359 14.7672 10.6384 14.7692 8.84375Z" fill="#667085"/>
</svg>
